HIERARCHY
ROOT Hips
{
	OFFSET 0.000000 35.082581 0.000000
	CHANNELS 6 Xposition Yposition Zposition Xrotation Yrotation Zrotation 
	JOINT Spine
	{
		OFFSET 0.000000 6.876099 0.125700
		CHANNELS 3 Xrotation Yrotation Zrotation
		JOINT Spine1
		{
			OFFSET 0.000000 5.730043 0.104720
			CHANNELS 3 Xrotation Yrotation Zrotation
			JOINT Spine1_split
			{
				OFFSET 0.000000 5.730043 0.104720
				CHANNELS 3 Xrotation Yrotation Zrotation
				JOINT Spine2
				{
					OFFSET 0.000000 5.730043 0.104720
					CHANNELS 3 Xrotation Yrotation Zrotation
					JOINT Neck
					{
						OFFSET 0.000000 10.314075 0.188496
						CHANNELS 3 Xrotation Yrotation Zrotation
						JOINT Head
						{
							OFFSET 0.000000 7.643700 -2.377400
							CHANNELS 3 Xrotation Yrotation Zrotation
							JOINT HeadTop_End
							{
								OFFSET 0.000000 43.788605 -13.619600
								CHANNELS 3 Xrotation Yrotation Zrotation
								End Site
								{
									OFFSET 0.000000 0.000000 0.000000
								}
							}
						}
					}
					JOINT LeftShoulder
					{
						OFFSET 2.196100 4.412489 0.087492
						CHANNELS 3 Xrotation Yrotation Zrotation
						JOINT LeftShoulder_split
						{
							OFFSET 2.196100 4.412489 0.087492
							CHANNELS 3 Xrotation Yrotation Zrotation
							JOINT LeftArm
							{
								OFFSET 8.771219 -2.981674 -0.026999
								CHANNELS 3 Xrotation Yrotation Zrotation
								JOINT LeftForeArm
								{
									OFFSET 8.512804 0.000000 -0.000000
									CHANNELS 3 Xrotation Yrotation Zrotation
									JOINT LeftHand
									{
										OFFSET 18.484802 0.000000 -0.000000
										CHANNELS 3 Xrotation Yrotation Zrotation
										JOINT LeftHandThumb1
										{
											OFFSET 2.499420 -1.158070 2.653252
											CHANNELS 3 Xrotation Yrotation Zrotation
											JOINT LeftHandThumb2
											{
												OFFSET 2.370079 -1.368366 1.368366
												CHANNELS 3 Xrotation Yrotation Zrotation
												JOINT LeftHandThumb3
												{
													OFFSET 2.676727 -1.545410 1.545409
													CHANNELS 3 Xrotation Yrotation Zrotation
													JOINT LeftHandThumb4
													{
														OFFSET 1.692226 -0.977005 0.977007
														CHANNELS 3 Xrotation Yrotation Zrotation
														End Site
														{
															OFFSET 0.000000 0.000000 0.000000
														}
													}
												}
											}
										}
										JOINT LeftHandIndex1
										{
											OFFSET 7.924831 -0.457527 2.345128
											CHANNELS 3 Xrotation Yrotation Zrotation
											JOINT LeftHandIndex2
											{
												OFFSET 3.643303 0.000000 0.000000
												CHANNELS 3 Xrotation Yrotation Zrotation
												JOINT LeftHandIndex3
												{
													OFFSET 3.810799 0.000000 0.000000
													CHANNELS 3 Xrotation Yrotation Zrotation
													JOINT LeftHandIndex4
													{
														OFFSET 2.403702 0.000000 0.000000
														CHANNELS 3 Xrotation Yrotation Zrotation
														End Site
														{
															OFFSET 0.000000 0.000000 0.000000
														}
													}
												}
											}
										}
										JOINT LeftHandMiddle1
										{
											OFFSET 8.563995 0.000000 -0.000000
											CHANNELS 3 Xrotation Yrotation Zrotation
											JOINT LeftHandMiddle2
											{
												OFFSET 3.861618 0.000000 0.000000
												CHANNELS 3 Xrotation Yrotation Zrotation
												JOINT LeftHandMiddle3
												{
													OFFSET 3.701603 0.000000 0.000000
													CHANNELS 3 Xrotation Yrotation Zrotation
													JOINT LeftHandMiddle4
													{
														OFFSET 2.322544 0.000000 0.000000
														CHANNELS 3 Xrotation Yrotation Zrotation
														End Site
														{
															OFFSET 0.000000 0.000000 0.000000
														}
													}
												}
											}
										}
										JOINT LeftHandRing1
										{
											OFFSET 8.426460 -0.424637 -3.286992
											CHANNELS 3 Xrotation Yrotation Zrotation
											JOINT LeftHandRing2
											{
												OFFSET 3.126408 0.000000 0.000000
												CHANNELS 3 Xrotation Yrotation Zrotation
												JOINT LeftHandRing3
												{
													OFFSET 3.085026 0.000000 0.000000
													CHANNELS 3 Xrotation Yrotation Zrotation
													JOINT LeftHandRing4
													{
														OFFSET 1.644005 0.000000 0.000000
														CHANNELS 3 Xrotation Yrotation Zrotation
														End Site
														{
															OFFSET 0.000000 0.000000 0.000000
														}
													}
												}
											}
										}
									}
								}
							}
						}
					}
					JOINT RightShoulder
					{
						OFFSET -2.196100 4.412496 0.070690
						CHANNELS 3 Xrotation Yrotation Zrotation
						JOINT RightShoulder_split
						{
							OFFSET -2.196100 4.412496 0.070690
							CHANNELS 3 Xrotation Yrotation Zrotation
							JOINT RightArm
							{
								OFFSET -8.771282 -2.981682 -0.094208
								CHANNELS 3 Xrotation Yrotation Zrotation
								JOINT RightForeArm
								{
									OFFSET -8.494598 0.000000 0.000000
									CHANNELS 3 Xrotation Yrotation Zrotation
									JOINT RightHand
									{
										OFFSET -18.483803 0.000000 0.000001
										CHANNELS 3 Xrotation Yrotation Zrotation
										JOINT RightHandThumb1
										{
											OFFSET -2.527351 -1.008072 2.575253
											CHANNELS 3 Xrotation Yrotation Zrotation
											JOINT RightHandThumb2
											{
												OFFSET -2.321518 -1.340328 1.340329
												CHANNELS 3 Xrotation Yrotation Zrotation
												JOINT RightHandThumb3
												{
													OFFSET -2.657753 -1.534454 1.534455
													CHANNELS 3 Xrotation Yrotation Zrotation
													JOINT RightHandThumb4
													{
														OFFSET -1.807510 -1.043568 1.043567
														CHANNELS 3 Xrotation Yrotation Zrotation
														End Site
														{
															OFFSET 0.000000 0.000000 0.000000
														}
													}
												}
											}
										}
										JOINT RightHandIndex1
										{
											OFFSET -8.811420 0.015533 2.887987
											CHANNELS 3 Xrotation Yrotation Zrotation
											JOINT RightHandIndex2
											{
												OFFSET -3.537502 0.000000 0.000000
												CHANNELS 3 Xrotation Yrotation Zrotation
												JOINT RightHandIndex3
												{
													OFFSET -3.356201 0.000000 0.000000
													CHANNELS 3 Xrotation Yrotation Zrotation
													JOINT RightHandIndex4
													{
														OFFSET -1.933098 0.000000 0.000000
														CHANNELS 3 Xrotation Yrotation Zrotation
														End Site
														{
															OFFSET 0.000000 0.000000 0.000000
														}
													}
												}
											}
										}
										JOINT RightHandMiddle1
										{
											OFFSET -8.178135 0.000000 0.000000
											CHANNELS 3 Xrotation Yrotation Zrotation
											JOINT RightHandMiddle2
											{
												OFFSET -3.901302 0.000000 0.000000
												CHANNELS 3 Xrotation Yrotation Zrotation
												JOINT RightHandMiddle3
												{
													OFFSET -3.909599 0.000000 0.000000
													CHANNELS 3 Xrotation Yrotation Zrotation
													JOINT RightHandMiddle4
													{
														OFFSET -2.376003 0.000000 0.000000
														CHANNELS 3 Xrotation Yrotation Zrotation
														End Site
														{
															OFFSET 0.000000 0.000000 0.000000
														}
													}
												}
											}
										}
										JOINT RightHandRing1
										{
											OFFSET -7.559013 0.014137 -2.865403
											CHANNELS 3 Xrotation Yrotation Zrotation
											JOINT RightHandRing2
											{
												OFFSET -3.449306 0.000000 0.000000
												CHANNELS 3 Xrotation Yrotation Zrotation
												JOINT RightHandRing3
												{
													OFFSET -3.362106 0.000000 0.000000
													CHANNELS 3 Xrotation Yrotation Zrotation
													JOINT RightHandRing4
													{
														OFFSET -2.076401 0.000000 0.000000
														CHANNELS 3 Xrotation Yrotation Zrotation
														End Site
														{
															OFFSET 0.000000 0.000000 0.000000
														}
													}
												}
											}
										}
									}
								}
							}
						}
					}
				}
			}
		}
	}
	JOINT LeftUpLeg
	{
		OFFSET 10.205400 -3.823500 0.155100
		CHANNELS 3 Xrotation Yrotation Zrotation
		JOINT LeftLeg
		{
			OFFSET 0.708757 -12.982077 0.567790
			CHANNELS 3 Xrotation Yrotation Zrotation
			JOINT LeftFoot
			{
				OFFSET -0.708756 -10.717838 -2.184338
				CHANNELS 3 Xrotation Yrotation Zrotation
				JOINT LeftToeBase
				{
					OFFSET 0.108149 -7.191104 7.560241
					CHANNELS 3 Xrotation Yrotation Zrotation
					JOINT LeftToe_End
					{
						OFFSET 0.070230 0.081724 4.490308
						CHANNELS 3 Xrotation Yrotation Zrotation
						End Site
						{
							OFFSET 0.000000 0.000000 0.000000
						}
					}
				}
			}
		}
	}
	JOINT RightUpLeg
	{
		OFFSET -10.205400 -3.823500 0.005500
		CHANNELS 3 Xrotation Yrotation Zrotation
		JOINT RightLeg
		{
			OFFSET -0.708756 -12.982134 0.610632
			CHANNELS 3 Xrotation Yrotation Zrotation
			JOINT RightFoot
			{
				OFFSET 0.708754 -10.717769 -1.945823
				CHANNELS 3 Xrotation Yrotation Zrotation
				JOINT RightToeBase
				{
					OFFSET -0.108140 -7.191069 7.372968
					CHANNELS 3 Xrotation Yrotation Zrotation
					JOINT RightToe_End
					{
						OFFSET -0.070227 0.081735 4.479403
						CHANNELS 3 Xrotation Yrotation Zrotation
						End Site
						{
							OFFSET 0.000000 0.000000 0.000000
						}
					}
				}
			}
		}
	}
}
MOTION
Frames: 4
Frame Time: 0.016667
0.041220 33.261349 -2.847390 1.018121 3.204842 -0.328517 19.037368 -0.967656 -1.402970 1.223057 -0.119062 0.413204 0.000000 0.000000 0.000000 1.222984 -0.102590 0.414475 17.491911 0.957044 1.398485 10.813755 -0.678496 3.594866 0.000003 -0.000000 0.000000 11.672654 -37.520627 -0.316561 0.000000 0.000000 0.000000 11.271319 19.967073 -51.862934 -0.000004 -34.690787 0.000020 2.574853 -0.956510 2.461482 -1.708921 11.916039 7.382938 4.613910 16.205063 1.361369 0.155755 9.814988 3.327211 -0.000003 -0.000002 -0.000004 0.562434 2.730260 -23.275989 0.897607 3.404361 -29.533560 0.246931 1.830957 -15.360382 0.000002 -0.000001 0.000001 0.723098 3.076872 -26.493829 0.834070 3.289887 -28.445298 0.792225 3.211569 -27.707450 -0.000001 -0.000001 -0.000001 0.759390 3.148833 -27.218857 1.519203 4.319075 -38.743029 1.377860 4.137246 -36.826147 -0.000001 0.000001 -0.000000 0.491485 -2.548970 6.180817 0.000000 0.000000 0.000000 3.745288 20.212618 34.029457 0.000005 9.536106 -0.000006 23.378769 19.150935 -10.871797 -1.994372 -12.184625 -7.943388 5.444739 -17.292024 -0.860476 -0.502641 -8.507749 -2.994133 0.000001 -0.000004 0.000001 0.461135 -2.494389 20.944384 1.026098 -3.640551 31.472241 0.509401 -2.616911 22.026976 -0.000001 -0.000001 0.000003 0.535717 -2.680976 22.596328 1.057797 -3.691687 31.967642 1.049731 -3.678781 31.842250 0.000002 0.000002 -0.000003 0.434003 -2.422390 20.311909 1.427581 -4.225575 37.320058 0.727753 -3.101838 26.401867 0.000003 -0.000003 0.000001 -16.452351 8.411375 8.173303 32.683073 -2.704669 0.832011 -17.476048 1.704823 -5.367470 -0.000016 -0.000003 -0.000001 -0.000000 0.000001 -0.000000 -1.978770 -6.229083 -5.240293 25.259062 -7.327514 9.358916 -23.263520 -17.356199 -0.235135 -0.343479 -0.000003 0.000002 0.000000 -0.000001 -0.000000 
0.046105 33.266895 -2.822504 0.968757 3.174666 -0.328480 18.771001 -0.956817 -1.404248 1.229635 -0.117464 0.406142 0.000000 0.000000 0.000000 1.229537 -0.101462 0.407324 17.464860 0.625444 1.445075 10.818744 -1.791895 4.166016 0.000001 -0.000000 0.000000 11.432071 -37.413427 -0.403136 0.000000 0.000000 0.000000 11.910116 20.221636 -52.024561 0.000010 -34.586989 -0.000002 1.537126 -1.822062 2.928789 -1.708924 11.916039 7.382940 4.613906 16.205063 1.361373 0.155758 9.814992 3.327214 -0.000002 0.000000 0.000001 0.543294 2.685388 -22.870957 0.876732 3.367332 -29.180214 0.227778 1.759778 -14.749109 0.000005 0.000001 -0.000001 0.704642 3.039387 -26.123573 0.803721 3.233331 -27.911954 0.758663 3.146948 -27.102373 -0.000003 0.000002 -0.000001 0.742630 3.115675 -26.858197 1.478274 4.267701 -38.196173 1.335100 4.079690 -36.229523 0.000000 0.000004 0.000000 0.477893 -2.717882 6.166555 0.000000 0.000000 0.000000 4.034800 19.963364 34.183256 -0.000005 9.601061 -0.000026 23.696959 18.707314 -11.098286 -1.994106 -12.184452 -7.943354 5.444936 -17.291985 -0.860844 -0.502642 -8.507755 -2.994136 0.000001 -0.000002 0.000001 0.496356 -2.584476 21.739584 1.040597 -3.664096 31.699813 0.511055 -2.621003 22.063263 0.000005 -0.000002 0.000002 0.569945 -2.761697 23.317450 1.074172 -3.717785 32.221281 1.050733 -3.680381 31.857758 0.000000 0.000000 -0.000002 0.462900 -2.499006 20.985073 1.445568 -4.249037 37.563824 0.726426 -3.099148 26.377222 0.000000 0.000001 0.000002 -16.274621 8.461986 8.191710 32.585617 -2.727537 0.793245 -17.510891 1.703492 -5.346314 -0.000008 -0.000001 0.000002 -0.000000 -0.000001 0.000000 -1.805746 -6.204392 -5.215901 25.101881 -7.348749 9.321533 -23.219085 -17.366347 -0.204316 -0.362815 0.000002 0.000003 0.000000 -0.000003 -0.000000 
0.049536 33.270325 -2.800926 0.921618 3.157502 -0.317258 18.531027 -0.930405 -1.427475 1.234591 -0.113719 0.407003 0.000000 0.000000 0.000000 1.234487 -0.097862 0.408096 17.433472 0.332751 1.495481 10.826389 -2.735814 4.630163 0.000001 0.000000 -0.000000 11.198560 -37.286057 -0.490909 0.000000 0.000000 0.000000 12.400883 20.323684 -52.234456 0.000003 -34.431489 0.000014 0.428607 -2.925363 3.387632 -1.708921 11.916039 7.382939 4.613915 16.205066 1.361372 0.155751 9.814990 3.327207 0.000000 0.000001 -0.000002 0.526288 2.644749 -22.505180 0.860847 3.338773 -28.908660 0.214553 1.708729 -14.311627 0.000001 0.000001 -0.000001 0.692324 3.014043 -25.875620 0.783518 3.194964 -27.551701 0.736338 3.102978 -26.692615 0.000002 0.000002 -0.000005 0.738388 3.107116 -26.747612 1.455588 4.238796 -37.890481 1.308575 4.043314 -35.854767 0.000000 0.000001 -0.000001 0.469250 -2.842984 6.172413 0.000000 0.000000 0.000000 4.088877 19.748918 34.584810 0.000007 9.610790 -0.000010 24.143322 18.313614 -11.303000 -1.993839 -12.184322 -7.943318 5.445090 -17.291934 -0.861166 -0.502648 -8.507756 -2.994140 0.000004 -0.000003 -0.000001 0.529402 -2.665743 22.460845 1.057836 -3.691788 31.968523 0.518058 -2.638190 22.215773 -0.000002 -0.000001 0.000004 0.608132 -2.848540 24.097549 1.098618 -3.756196 32.596299 1.061384 -3.697441 32.023499 -0.000003 -0.000000 -0.000002 0.504150 -2.603908 21.911614 1.480795 -4.294295 38.036538 0.740289 -3.126903 26.632496 -0.000001 0.000000 -0.000000 -16.113991 8.499593 8.190490 32.495021 -2.741872 0.765655 -17.534665 1.702409 -5.332203 -0.000031 0.000005 -0.000001 0.000000 -0.000000 0.000000 -1.663826 -6.199341 -5.217754 25.004064 -7.355233 9.301631 -23.207543 -17.366429 -0.178771 -0.370007 -0.000004 -0.000002 0.000000 -0.000001 0.000000 
0.051592 33.271507 -2.782554 0.875512 3.160851 -0.295166 18.317427 -0.892242 -1.468522 1.237615 -0.108356 0.414652 0.000000 0.000000 0.000000 1.237485 -0.092383 0.415663 17.402058 0.082499 1.541182 10.840836 -3.516357 4.995899 0.000001 0.000000 -0.000000 10.974275 -37.134191 -0.580669 0.000000 0.000000 0.000000 12.738200 20.288146 -52.482497 -0.000004 -34.226778 0.000005 -0.546880 -4.175039 3.785983 -1.708920 11.916041 7.382938 4.613902 16.205068 1.361372 0.155753 9.814991 3.327214 -0.000002 0.000004 -0.000000 0.510254 2.605765 -22.155190 0.848780 3.316863 -28.700749 0.206150 1.675489 -14.027327 -0.000002 -0.000003 0.000002 0.684167 2.997143 -25.712942 0.771524 3.171922 -27.335826 0.723487 3.077311 -26.454176 0.000000 -0.000003 -0.000004 0.743594 3.117387 -26.827861 1.447902 4.228934 -37.786280 1.295817 4.025647 -35.673538 -0.000000 -0.000001 -0.000000 0.465140 -2.927778 6.199355 0.000000 0.000000 0.000000 3.910889 19.563091 35.227459 0.000008 9.562530 -0.000013 24.620395 18.025284 -11.454629 -1.993605 -12.184208 -7.943303 5.445233 -17.291881 -0.861492 -0.502640 -8.507751 -2.994137 0.000006 -0.000000 0.000001 0.551020 -2.717395 22.921271 1.069486 -3.710376 32.149123 0.523380 -2.651145 22.330844 -0.000001 0.000001 -0.000000 0.641224 -2.921289 24.754938 1.120451 -3.790064 32.928257 1.071939 -3.714224 32.186682 -0.000001 0.000002 -0.000003 0.549809 -2.714561 22.895776 1.520034 -4.343844 38.557531 0.757559 -3.161041 26.947289 0.000001 -0.000001 0.000001 -15.975377 8.522276 8.168080 32.416385 -2.752803 0.752558 -17.546911 1.701236 -5.324272 -0.000057 -0.000000 0.000005 0.000000 -0.000001 0.000000 -1.548324 -6.212178 -5.241911 24.964768 -7.347399 9.295718 -23.231780 -17.365869 -0.157710 -0.365529 -0.000011 0.000000 0.000000 0.000001 0.000000 
